# xmcd CD database file
#
# Track frame offsets:
#	150
#	17333
#	33738
#	47721
#	66050
#	83918
#
# Disc length: 1333 seconds
#
# Revision: 0
# Processed by: cddbd v1.5.2PL0 Copyright (c) Steve Scherf et al.
# Submitted via: CDex 1.51
#
DISCID=43053306
DTITLE=Miu - May I Introduce
DYEAR=2012
DGENRE=Blues
TTITLE0=Turn Around
TTITLE1=Peter Pan
TTITLE2=Jump Into The Night (Explicit)
TTITLE3=Waitin' For You
TTITLE4=My Man
TTITLE5=I Put A Spell On You (Explicit)
EXTD=YEAR: 2012
EXTT0=
EXTT1=
EXTT2=
EXTT3=
EXTT4=
EXTT5=
PLAYORDER=
